<?xml version="1.0" encoding="UTF-8" standalone="no"?>
<svg
   id="logo-40"
   width="173.14687"
   height="29.285999"
   viewBox="0 0 173.14686 29.285999"
   fill="none"
   version="1.1"
   sodipodi:docname="logo-GaVis.svg"
   inkscape:version="1.1.1 (3bf5ae0d25, 2021-09-20)"
   xmlns:inkscape="http://www.inkscape.org/namespaces/inkscape"
   xmlns:sodipodi="http://sodipodi.sourceforge.net/DTD/sodipodi-0.dtd"
   xmlns="http://www.w3.org/2000/svg"
   xmlns:svg="http://www.w3.org/2000/svg">
  <defs
     id="defs109" />
  <sodipodi:namedview
     id="namedview107"
     pagecolor="#505050"
     bordercolor="#eeeeee"
     borderopacity="1"
     inkscape:pageshadow="0"
     inkscape:pageopacity="0"
     inkscape:pagecheckerboard="0"
     showgrid="false"
     inkscape:zoom="7.0586624"
     inkscape:cx="83.301902"
     inkscape:cy="20.825475"
     inkscape:window-width="1920"
     inkscape:window-height="1043"
     inkscape:window-x="0"
     inkscape:window-y="768"
     inkscape:window-maximized="1"
     inkscape:current-layer="logo-40" />
  <path
     style="fill:#ff9c5b;fill-opacity:1;stroke:#ffffff;stroke-width:0.465;stroke-miterlimit:4;stroke-dasharray:none"
     d="M 5.502589,27.406586 V 25.759672 H 7.231838 8.961086 V 27.406586 29.0535 H 7.231838 5.502589 Z m 17.621862,0 v -1.646914 h 1.729248 1.729248 V 27.406586 29.0535 H 24.853699 23.124451 Z M 9.089384,23.412819 9.043434,21.230657 7.273013,21.183917 5.502592,21.137177 v -3.041223 -3.04122 H 3.773344 2.044096 V 14.231276 13.40782 H 3.773344 5.502592 V 10.36102 7.3142285 H 6.408389 7.314186 V 6.4084282 5.5026261 H 8.219982 9.125779 V 4.5968229 3.69102 h 1.317522 1.317523 V 1.96176 0.2325 h 0.741106 0.741106 v 1.72926 1.72926 h 2.799736 2.799735 V 1.96176 0.2325 h 0.741106 0.741106 v 1.72926 1.72926 h 1.317523 1.317522 v 0.9058029 0.9058032 h 0.905797 0.905796 v 0.9058021 0.9058033 h 0.905797 0.905796 v 3.0467915 3.046791 h 1.729249 1.729248 v 0.823457 0.823458 H 28.312199 26.58295 v 3.041219 3.04122 l -1.77042,0.04674 -1.770421,0.04674 -0.04595,2.18216 -0.04595,2.182163 H 20.90114 18.852072 l -0.04595,-2.182163 -0.04595,-2.18216 h -2.717389 -2.71739 l -0.04595,2.18216 -0.04595,2.182163 H 11.184425 9.135356 Z m 5.268521,-10.046178 0.04438,-3.5820381 H 12.58748 10.772675 v 3.6287831 3.628783 l 1.770421,-0.04674 1.77042,-0.04674 z m 6.954953,0.04117 V 9.7845969 h -1.811593 -1.811594 v 3.5134171 c 0,1.93238 0.04941,3.562826 0.109795,3.62321 0.06038,0.06039 0.875602,0.109799 1.811593,0.109799 h 1.701799 z M 0.2325,8.4670715 V 3.69102 H 1.055951 1.879403 V 8.4670715 13.243123 H 1.055951 0.2325 Z m 29.973634,0 V 3.69102 h 0.823452 0.823451 v 4.7760515 4.7760515 h -0.823451 -0.823452 z"
     id="path1244" />
  <g
     aria-label="Gaming Advisor"
     id="text2693"
     style="font-size:16px;line-height:1.25;fill:#ffffff">
    <path
       d="m 43.459373,18.744562 v 1.367188 h -4.6875 v -1.5625 h -1.5625 v -7.8125 h 1.5625 V 9.1742496 h 7.8125 V 12.29925 h -1.5625 v -1.5625 h -4.6875 v 7.8125 h 2.929688 l 0.195312,-0.195313 V 15.42425 h -1.5625 v -1.5625 h 4.6875 v 6.25 h -1.5625 v -1.5625 h -1.367187 z"
       style="font-family:'Pixel Digivolve';-inkscape-font-specification:'Pixel Digivolve'"
       id="path17625" />
    <path
       d="m 54.396873,15.42425 v -4.6875 h -3.125 v 4.6875 z m -3.125,1.5625 v 3.125 h -3.125 v -9.375 h 1.5625 V 9.1742496 h 6.25 V 10.73675 h 1.5625 v 9.375 h -3.125 v -3.125 z"
       style="font-family:'Pixel Digivolve';-inkscape-font-specification:'Pixel Digivolve'"
       id="path17627" />
    <path
       d="m 60.646873,15.42425 v 4.6875 h -1.5625 V 9.1742496 h 3.125 V 12.29925 h 4.6875 V 9.1742496 h 3.125 V 20.11175 h -3.125 v -4.6875 h -1.5625 v 3.125 h -3.125 v -3.125 z"
       style="font-family:'Pixel Digivolve';-inkscape-font-specification:'Pixel Digivolve'"
       id="path17629" />
    <path
       d="M 71.584373,20.11175 V 9.1742496 h 3.125 V 20.11175 Z"
       style="font-family:'Pixel Digivolve';-inkscape-font-specification:'Pixel Digivolve'"
       id="path17631" />
    <path
       d="m 77.834373,15.42425 v 4.6875 h -1.5625 V 9.1742496 h 3.125 V 12.29925 h 1.5625 v 3.125 h 1.5625 V 9.1742496 h 3.125 V 20.11175 h -3.125 v -1.5625 h -3.125 v -3.125 z"
       style="font-family:'Pixel Digivolve';-inkscape-font-specification:'Pixel Digivolve'"
       id="path17633" />
    <path
       d="m 93.459373,18.744562 v 1.367188 h -4.6875 v -1.5625 h -1.5625 v -7.8125 h 1.5625 V 9.1742496 h 7.8125 V 12.29925 h -1.5625 v -1.5625 h -4.6875 v 7.8125 h 2.929688 l 0.195312,-0.195313 V 15.42425 h -1.5625 v -1.5625 h 4.6875 v 6.25 h -1.5625 v -1.5625 h -1.367187 z"
       style="font-family:'Pixel Digivolve';-inkscape-font-specification:'Pixel Digivolve'"
       id="path17635" />
    <path
       d="m 110.64687,15.42425 v -4.6875 h -3.125 v 4.6875 z m -3.125,1.5625 v 3.125 h -3.125 v -9.375 h 1.5625 V 9.1742496 h 6.25 V 10.73675 h 1.5625 v 9.375 h -3.125 v -3.125 z"
       style="font-family:'Pixel Digivolve';-inkscape-font-specification:'Pixel Digivolve'"
       id="path17637" />
    <path
       d="m 121.58437,10.73675 h -3.125 v 7.8125 h 3.125 z m -6.25,9.375 V 9.1742496 h 7.8125 V 10.73675 h 1.5625 v 7.8125 h -1.5625 v 1.5625 z"
       style="font-family:'Pixel Digivolve';-inkscape-font-specification:'Pixel Digivolve'"
       id="path17639" />
    <path
       d="M 132.52187,16.98675 V 9.1742496 h 3.125 V 16.98675 h -1.5625 v 1.5625 h -1.5625 v 1.5625 h -3.125 v -1.5625 h -1.5625 v -1.5625 h -1.5625 V 9.1742496 h 3.125 V 16.98675 Z"
       style="font-family:'Pixel Digivolve';-inkscape-font-specification:'Pixel Digivolve'"
       id="path17641" />
    <path
       d="M 137.20937,20.11175 V 9.1742496 h 3.125 V 20.11175 Z"
       style="font-family:'Pixel Digivolve';-inkscape-font-specification:'Pixel Digivolve'"
       id="path17643" />
    <path
       d="m 148.14687,10.73675 h -3.125 v 3.125 h 4.6875 v 1.5625 h 1.5625 v 3.125 h -1.5625 v 1.5625 h -6.25 v -1.5625 h -1.5625 v -1.5625 h 3.125 v 1.5625 h 3.125 v -3.125 h -4.6875 v -1.5625 h -1.5625 v -3.125 h 1.5625 V 9.1742496 h 6.25 V 10.73675 h 1.5625 v 1.5625 h -3.125 z"
       style="font-family:'Pixel Digivolve';-inkscape-font-specification:'Pixel Digivolve'"
       id="path17645" />
    <path
       d="m 159.08437,10.73675 h -3.125 v 7.8125 h 3.125 z m -4.6875,7.8125 h -1.5625 v -7.8125 h 1.5625 V 9.1742496 h 6.25 V 10.73675 h 1.5625 v 7.8125 h -1.5625 v 1.5625 h -6.25 z"
       style="font-family:'Pixel Digivolve';-inkscape-font-specification:'Pixel Digivolve'"
       id="path17647" />
    <path
       d="m 170.02187,10.73675 h -3.125 v 3.125 h 3.125 z m 1.5625,4.6875 h 1.5625 v 4.6875 h -3.125 v -4.6875 h -3.125 v 4.6875 h -3.125 V 9.1742496 h 7.8125 V 10.73675 h 1.5625 v 3.125 h -1.5625 z"
       style="font-family:'Pixel Digivolve';-inkscape-font-specification:'Pixel Digivolve'"
       id="path17649" />
  </g>
</svg>
