<?xml version="1.0" encoding="UTF-8" standalone="no"?>
<svg
   id="logo-40"
   width="228.99075"
   height="32"
   viewBox="0 0 228.99075 32"
   fill="none"
   version="1.1"
   sodipodi:docname="logo-GaVis.svg"
   inkscape:version="1.1.1 (3bf5ae0d25, 2021-09-20)"
   xmlns:inkscape="http://www.inkscape.org/namespaces/inkscape"
   xmlns:sodipodi="http://sodipodi.sourceforge.net/DTD/sodipodi-0.dtd"
   xmlns="http://www.w3.org/2000/svg"
   xmlns:svg="http://www.w3.org/2000/svg">
  <defs
     id="defs109" />
  <sodipodi:namedview
     id="namedview107"
     pagecolor="#505050"
     bordercolor="#eeeeee"
     borderopacity="1"
     inkscape:pageshadow="0"
     inkscape:pageopacity="0"
     inkscape:pagecheckerboard="0"
     showgrid="false"
     inkscape:zoom="4.9912281"
     inkscape:cx="84.147627"
     inkscape:cy="35.462214"
     inkscape:window-width="1920"
     inkscape:window-height="1043"
     inkscape:window-x="0"
     inkscape:window-y="768"
     inkscape:window-maximized="1"
     inkscape:current-layer="logo-40" />
  <path
     d="M 0,16 C 0,7.16344 7.16344,0 16,0 h 21 c 8.8366,0 16,7.16344 16,16 V 32 H 16 C 7.16344,32 0,24.8366 0,16 Z"
     fill="#eb9a28"
     class="ccustom"
     data-darkreader-inline-fill=""
     stop-color="#eb9a28"
     id="path94"
     style="fill:#ff9c5b;fill-opacity:1" />
  <rect
     x="6"
     y="6"
     width="41"
     height="20"
     rx="10"
     fill="#7a4e11"
     class="ccompli2"
     data-darkreader-inline-fill=""
     stop-color="#7a4e11"
     id="rect96"
     style="fill:#f9f9f9;fill-opacity:1" />
  <circle
     cx="16"
     cy="16"
     r="5"
     fill="#000000"
     data-darkreader-inline-fill=""
     id="circle98" />
  <circle
     cx="14"
     cy="14"
     r="1"
     fill="#ffffff"
     data-darkreader-inline-fill=""
     id="circle100" />
  <circle
     cx="38"
     cy="16"
     r="5"
     fill="#000000"
     data-darkreader-inline-fill=""
     id="circle102" />
  <circle
     cx="36"
     cy="14"
     r="1"
     fill="#ffffff"
     data-darkreader-inline-fill=""
     id="circle104" />
  <g
     aria-label="Gaming Advisor"
     transform="matrix(1.031914,0,0,0.96907301,0,2)"
     id="text8442"
     style="font-size:23.2577px;line-height:1.25;fill:#ffffff;stroke-width:0.969073">
    <path
       d="m 69.200235,20.735167 q -0.39747,0.465608 -1.22648,1.010711 -0.817654,0.533746 -2.100916,0.91986 -1.283261,0.374758 -3.100269,0.374758 -2.169053,0 -3.793004,-0.931217 -1.623951,-0.942573 -2.532455,-2.736868 -0.908503,-1.794295 -0.908503,-4.372175 v -0.897147 q 0,-2.57788 0.874435,-4.3721755 0.885791,-1.8056515 2.45296,-2.7482243 1.578526,-0.9425728 3.668085,-0.9425728 2.214478,0 3.611303,0.7154468 1.408181,0.7040906 2.14634,1.975996 0.73816,1.2605492 0.908504,2.8958558 H 65.623001 Q 65.509438,10.798406 65.168749,10.219234 64.839416,9.6400631 64.226176,9.3334431 63.612936,9.0154667 62.647651,9.0154667 q -1.078849,0 -1.828365,0.5678149 -0.749515,0.5564584 -1.146986,1.6807324 -0.386114,1.124273 -0.386114,2.816362 v 0.91986 q 0,1.680732 0.408827,2.816362 0.420183,1.124274 1.237836,1.692089 0.82901,0.556458 2.066847,0.556458 0.738159,0 1.22648,-0.113563 0.499677,-0.113563 0.806297,-0.283907 0.30662,-0.170345 0.476965,-0.329333 v -2.657374 h -2.918569 v -2.66873 h 6.609366 z"
       style="font-weight:800;font-family:Heebo;-inkscape-font-specification:'Heebo Ultra-Bold';fill:#ffffff;fill-opacity:1"
       id="path13" />
    <path
       d="m 78.103574,14.636835 q 0,-0.794941 -0.397471,-1.26055 -0.386114,-0.476964 -1.249193,-0.476964 -0.48832,0 -0.840366,0.158988 -0.340689,0.158988 -0.533746,0.465608 -0.181701,0.295264 -0.181701,0.749516 h -3.543165 q 0,-1.124274 0.647309,-2.010065 0.658666,-0.897147 1.839721,-1.430893 1.192411,-0.533747 2.805005,-0.533747 1.44225,0 2.566524,0.488321 1.13563,0.476965 1.794295,1.453607 0.658666,0.965285 0.658666,2.418891 v 5.098978 q 0,1.124274 0.124919,1.760227 0.136275,0.624596 0.374758,1.101561 v 0.193057 h -3.565878 q -0.249839,-0.533746 -0.374758,-1.328687 -0.124919,-0.806297 -0.124919,-1.646664 z m 0.476964,2.66873 h -1.726157 q -1.192412,0 -1.714801,0.533746 -0.511034,0.533746 -0.511034,1.271905 0,0.545103 0.386114,0.908504 0.397471,0.352046 1.04478,0.352046 0.681378,0 1.181055,-0.261195 0.499677,-0.272552 0.760872,-0.635953 0.272551,-0.374758 0.249839,-0.692734 l 0.885791,1.521744 q -0.181701,0.454252 -0.488321,0.931216 -0.295264,0.476965 -0.749516,0.885792 -0.454252,0.408826 -1.101561,0.670021 -0.647309,0.249839 -1.5331,0.249839 -1.158342,0 -2.112272,-0.465609 -0.953929,-0.476964 -1.521744,-1.305974 -0.556458,-0.840366 -0.556458,-1.930571 0,-1.919214 1.419537,-2.986706 1.430894,-1.067492 4.292681,-1.067492 h 1.771583 z"
       style="font-weight:800;font-family:Heebo;-inkscape-font-specification:'Heebo Ultra-Bold';fill:#ffffff;fill-opacity:1"
       id="path15" />
    <path
       d="M 87.574726,22.81337 H 84.020204 V 10.525854 h 3.338752 l 0.21577,2.57788 z m -1.419537,-6.495803 q 0,-1.74887 0.533746,-3.10027 0.545102,-1.362756 1.612594,-2.134984 1.078849,-0.783585 2.657374,-0.783585 1.635307,0 2.657374,1.010711 1.022067,0.999354 1.022067,3.304683 v 8.199248 h -3.554522 v -7.744996 q 0,-0.783585 -0.204413,-1.192411 -0.193057,-0.408827 -0.567815,-0.556459 -0.374758,-0.147632 -0.908504,-0.147632 -0.590527,0 -1.022067,0.227126 -0.431539,0.227126 -0.726803,0.647309 -0.283907,0.408827 -0.420183,0.976642 -0.136276,0.567815 -0.136276,1.249193 z m 6.938698,-0.09085 q -0.01136,-1.692088 0.511034,-3.032131 0.533746,-1.340044 1.578525,-2.112272 1.056136,-0.783585 2.623305,-0.783585 1.169699,0 2.044134,0.454252 0.885795,0.454252 1.374115,1.499032 0.48832,1.033423 0.48832,2.782293 v 7.779065 h -3.56588 v -7.779065 q 0,-0.772228 -0.204413,-1.169699 -0.193057,-0.39747 -0.567815,-0.545102 -0.374758,-0.147632 -0.897148,-0.147632 -0.556458,0 -0.965285,0.21577 -0.408827,0.215769 -0.681378,0.61324 -0.261195,0.39747 -0.408827,0.942573 -0.136275,0.545102 -0.136275,1.181055 z"
       style="font-weight:800;font-family:Heebo;-inkscape-font-specification:'Heebo Ultra-Bold';fill:#ffffff;fill-opacity:1"
       id="path17" />
    <path
       d="m 107.83436,22.81337 h -3.55452 V 10.525854 h 3.55452 z M 104.06407,7.3688034 q 0,-0.7949409 0.53375,-1.2946181 0.5451,-0.5110334 1.44225,-0.5110334 0.89715,0 1.43089,0.5110334 0.54511,0.4996772 0.54511,1.2946181 0,0.7835846 -0.54511,1.294618 -0.53374,0.5110335 -1.43089,0.5110335 -0.89715,0 -1.44225,-0.5110335 -0.53375,-0.5110334 -0.53375,-1.294618 z"
       style="font-weight:800;font-family:Heebo;-inkscape-font-specification:'Heebo Ultra-Bold';fill:#ffffff;fill-opacity:1"
       id="path19" />
    <path
       d="m 113.8532,22.81337 h -3.54316 V 10.525854 h 3.32739 l 0.21577,2.623305 z m -1.40818,-6.495803 q 0,-1.885146 0.60189,-3.225189 0.60188,-1.3514 1.68073,-2.066846 1.0902,-0.726804 2.5211,-0.726804 1.15834,0 2.02142,0.454252 0.87443,0.454252 1.36275,1.487676 0.49968,1.033423 0.49968,2.805005 v 7.767709 h -3.56588 v -7.790421 q 0,-0.73816 -0.21577,-1.13563 -0.20441,-0.408827 -0.62459,-0.556459 -0.40883,-0.158988 -0.99936,-0.158988 -0.61324,0 -1.05613,0.227126 -0.4429,0.227126 -0.73816,0.647309 -0.28391,0.408827 -0.42019,0.976642 -0.13627,0.567815 -0.13627,1.249193 z"
       style="font-weight:800;font-family:Heebo;-inkscape-font-specification:'Heebo Ultra-Bold';fill:#ffffff;fill-opacity:1"
       id="path21" />
    <path
       d="m 134.41946,10.525854 v 11.833264 q 0,1.692088 -0.77223,2.873143 -0.76087,1.192412 -2.13498,1.805652 -1.36276,0.61324 -3.16841,0.61324 -0.76087,0 -1.63531,-0.204413 -0.86308,-0.204414 -1.64666,-0.624597 -0.77223,-0.420183 -1.30598,-1.044779 l 1.54446,-2.18041 q 0.52239,0.579172 1.26055,0.942573 0.73816,0.363402 1.64666,0.363402 1.26055,0 1.95329,-0.670022 0.69273,-0.670022 0.69273,-1.885146 v -8.937407 l 0.34069,-2.8845 z m -11.43579,6.052908 q 0,-1.87379 0.60188,-3.281971 0.61324,-1.419537 1.73751,-2.203122 1.12428,-0.794941 2.66873,-0.794941 1.2492,0 2.07821,0.476965 0.82901,0.476965 1.34004,1.340043 0.52239,0.851723 0.81765,2.010065 0.29527,1.158343 0.46561,2.521098 v 0.204414 q -0.23848,1.703445 -0.77223,3.111626 -0.52239,1.408181 -1.48767,2.248547 -0.95393,0.82901 -2.46432,0.82901 -1.5331,0 -2.65737,-0.806297 -1.11292,-0.817654 -1.72616,-2.225835 -0.60188,-1.408181 -0.60188,-3.19112 z m 3.55452,0.238482 q 0,0.931216 0.24984,1.692089 0.24983,0.760872 0.76087,1.215123 0.52239,0.442896 1.32868,0.442896 0.86308,0 1.38547,-0.363401 0.53375,-0.363402 0.79494,-1.010711 0.2612,-0.658665 0.28391,-1.521744 v -1.04478 q -0.0114,-0.738159 -0.15899,-1.305974 -0.14763,-0.579171 -0.44289,-0.965285 -0.29527,-0.386114 -0.74952,-0.579172 -0.45425,-0.204413 -1.0902,-0.204413 -0.78359,0 -1.31733,0.454252 -0.52239,0.442896 -0.78359,1.215124 -0.26119,0.760872 -0.26119,1.737514 z"
       style="font-weight:800;font-family:Heebo;-inkscape-font-specification:'Heebo Ultra-Bold';fill:#ffffff;fill-opacity:1"
       id="path23" />
    <path
       d="m 145.37828,22.81337 h -3.94063 l 6.1324,-16.5347713 h 2.48703 l -0.37476,3.2933266 z m 3.5091,-13.2414447 -0.40883,-3.2933266 h 2.5211 l 6.15512,16.5347713 h -3.94064 z m 4.22454,10.0389677 h -8.71028 v -2.986706 h 8.71028 z"
       style="font-weight:800;font-family:Heebo;-inkscape-font-specification:'Heebo Ultra-Bold';fill:#ffffff;fill-opacity:1"
       id="path25" />
    <path
       d="m 165.52436,5.3700948 h 3.56588 V 22.81337 h -3.20248 l -0.3634,-2.770937 z m -7.6655,11.2086672 q 0,-1.87379 0.55646,-3.281971 0.56781,-1.419537 1.63531,-2.203122 1.07884,-0.794941 2.6233,-0.794941 1.43089,0 2.39618,0.840367 0.96529,0.829009 1.52174,2.259903 0.55646,1.430894 0.77223,3.247901 v 0.204414 q -0.21577,1.703445 -0.77223,3.111626 -0.55645,1.408181 -1.52174,2.248547 -0.96529,0.82901 -2.41889,0.82901 -1.5331,0 -2.60059,-0.806297 -1.0675,-0.817654 -1.63531,-2.225835 -0.55646,-1.408181 -0.55646,-3.19112 z m 3.55452,0.238482 q 0,0.931216 0.19306,1.692089 0.20441,0.760872 0.67002,1.215123 0.47697,0.442896 1.28326,0.442896 0.78359,0 1.29462,-0.363401 0.52239,-0.363402 0.77223,-1.010711 0.26119,-0.658665 0.28391,-1.521744 v -1.04478 q -0.0114,-0.738159 -0.17035,-1.305974 -0.14763,-0.579171 -0.43154,-0.965285 -0.2839,-0.386114 -0.71544,-0.579172 -0.43154,-0.204413 -1.01071,-0.204413 -0.79495,0 -1.27191,0.454252 -0.47696,0.442896 -0.69273,1.215124 -0.20442,0.760872 -0.20442,1.737514 z"
       style="font-weight:800;font-family:Heebo;-inkscape-font-specification:'Heebo Ultra-Bold';fill:#ffffff;fill-opacity:1"
       id="path27" />
    <path
       d="m 178.31155,10.525854 h 3.71351 l -4.07691,12.287516 h -2.23719 l 0.0454,-2.589236 z m -1.6353,9.69828 0.0341,2.589236 h -2.22584 l -4.09962,-12.287516 h 3.73622 z"
       style="font-weight:800;font-family:Heebo;-inkscape-font-specification:'Heebo Ultra-Bold';fill:#ffffff;fill-opacity:1"
       id="path29" />
    <path
       d="m 187.08997,22.81337 h -3.55452 V 10.525854 h 3.55452 z M 183.31968,7.3688034 q 0,-0.7949409 0.53375,-1.2946181 0.5451,-0.5110334 1.44225,-0.5110334 0.89714,0 1.43089,0.5110334 0.5451,0.4996772 0.5451,1.2946181 0,0.7835846 -0.5451,1.294618 -0.53375,0.5110335 -1.43089,0.5110335 -0.89715,0 -1.44225,-0.5110335 -0.53375,-0.5110334 -0.53375,-1.294618 z"
       style="font-weight:800;font-family:Heebo;-inkscape-font-specification:'Heebo Ultra-Bold';fill:#ffffff;fill-opacity:1"
       id="path31" />
    <path
       d="m 196.18638,19.372411 q 0,-0.329332 -0.20442,-0.567815 -0.19306,-0.238482 -0.7268,-0.442895 -0.52239,-0.21577 -1.51039,-0.420183 -1.23784,-0.272552 -2.22583,-0.73816 -0.988,-0.476964 -1.56717,-1.215124 -0.56782,-0.749516 -0.56782,-1.817008 0,-1.033423 0.59053,-1.919214 0.59053,-0.885791 1.70344,-1.419537 1.11292,-0.533747 2.68009,-0.533747 1.62395,0 2.79365,0.511034 1.18106,0.511033 1.81701,1.408181 0.63595,0.897148 0.63595,2.066846 h -3.54316 q 0,-0.692734 -0.40883,-1.101561 -0.39747,-0.408826 -1.30598,-0.408826 -0.4656,0 -0.829,0.158988 -0.35205,0.158988 -0.54511,0.431539 -0.19305,0.261195 -0.19305,0.624597 0,0.329332 0.20441,0.590527 0.21577,0.249839 0.68138,0.442896 0.47696,0.181701 1.2719,0.329332 1.29462,0.238483 2.35076,0.670022 1.06749,0.420183 1.70344,1.192411 0.63595,0.760872 0.63595,2.032778 0,1.090205 -0.64731,1.953283 -0.6473,0.851723 -1.82836,1.3514 -1.18105,0.488321 -2.78229,0.488321 -1.74887,0 -2.95264,-0.624597 -1.19241,-0.635952 -1.81701,-1.589882 -0.61324,-0.965285 -0.61324,-1.964639 h 3.35011 q 0.0341,0.590527 0.31798,0.965285 0.2839,0.374758 0.74951,0.556459 0.46561,0.170344 1.04478,0.170344 0.57917,0 0.95393,-0.147632 0.38611,-0.147631 0.57917,-0.408826 0.20442,-0.272552 0.20442,-0.624597 z"
       style="font-weight:800;font-family:Heebo;-inkscape-font-specification:'Heebo Ultra-Bold';fill:#ffffff;fill-opacity:1"
       id="path33" />
    <path
       d="m 201.10365,16.556049 q 0,-1.794295 0.68137,-3.202476 0.68138,-1.419538 1.98736,-2.237191 1.30597,-0.817654 3.17976,-0.817654 1.90786,0 3.21383,0.817654 1.31733,0.817653 1.98735,2.237191 0.68138,1.408181 0.68138,3.202476 v 0.238482 q 0,1.782939 -0.68138,3.202477 -0.67002,1.419537 -1.97599,2.237191 -1.30598,0.806297 -3.20248,0.806297 -1.88514,0 -3.20247,-0.806297 -1.30598,-0.817654 -1.98736,-2.237191 -0.68137,-1.419538 -0.68137,-3.202477 z m 3.55452,0.238482 q 0,0.942573 0.21577,1.714802 0.21577,0.772228 0.7268,1.22648 0.51103,0.454252 1.37411,0.454252 0.86308,0 1.37411,-0.454252 0.51104,-0.454252 0.72681,-1.22648 0.21577,-0.772229 0.21577,-1.714802 v -0.238482 q 0,-0.91986 -0.21577,-1.692088 -0.21577,-0.783585 -0.72681,-1.249193 -0.51103,-0.465609 -1.39682,-0.465609 -0.85172,0 -1.36276,0.465609 -0.49967,0.465608 -0.71544,1.249193 -0.21577,0.772228 -0.21577,1.692088 z"
       style="font-weight:800;font-family:Heebo;-inkscape-font-specification:'Heebo Ultra-Bold';fill:#ffffff;fill-opacity:1"
       id="path35" />
    <path
       d="m 218.29708,22.81337 h -3.55452 V 10.525854 h 3.33875 l 0.21577,2.907213 z m 3.56588,-8.937407 q -0.24984,-0.03407 -0.60189,-0.05678 -0.35204,-0.03407 -0.62459,-0.03407 -0.88579,0 -1.46496,0.272551 -0.56782,0.261195 -0.84037,0.794941 -0.27255,0.52239 -0.29526,1.328687 l -0.68138,-0.352045 q 0,-1.623951 0.40882,-2.873144 0.42019,-1.249192 1.20377,-1.953283 0.79494,-0.704091 1.90786,-0.704091 0.2612,0 0.55646,0.03407 0.29526,0.03407 0.47696,0.113563 z"
       style="font-weight:800;font-family:Heebo;-inkscape-font-specification:'Heebo Ultra-Bold';fill:#ffffff;fill-opacity:1"
       id="path37" />
  </g>
</svg>
